<mxfile host="app.diagrams.net" modified="2023-12-03T17:14:30.975Z" agent="Mozilla/5.0 (Macintosh; Intel Mac OS X 10_15_7) AppleWebKit/605.1.15 (KHTML, like Gecko) Version/17.1 Safari/605.1.15" version="22.1.5" etag="mfDmIH2vMfS9zW9U8A_B" type="github">
  <diagram name="Page-1" id="NBhJn_jJsLc5wNwFuIVV">
    <mxGraphModel>
      <root>
        <mxCell id="0" />
        <mxCell id="1" parent="0" />
      </root>
    </mxGraphModel>
  </diagram>
</mxfile>
